<mxfile host="app.diagrams.net" modified="2022-10-08T14:18:58.104Z" agent="5.0 (Windows NT 10.0; Win64; x64) AppleWebKit/537.36 (KHTML, like Gecko) Chrome/106.0.0.0 Safari/537.36" etag="-8khKzMrofftOLGYhLmh" version="20.4.0" type="github">
  <diagram id="AhItORR3PcPiC6z1AUoL" name="Page-1">
    <mxGraphModel dx="813" dy="449" grid="1" gridSize="10" guides="1" tooltips="1" connect="1" arrows="1" fold="1" page="1" pageScale="1" pageWidth="850" pageHeight="1100" math="0" shadow="0">
      <root>
        <mxCell id="0" />
        <mxCell id="1" parent="0" />
        <mxCell id="BiNFgmCxdBk1g7SQnNtv-1" style="edgeStyle=orthogonalEdgeStyle;rounded=0;orthogonalLoop=1;jettySize=auto;html=1;" edge="1" parent="1" source="BiNFgmCxdBk1g7SQnNtv-2" target="BiNFgmCxdBk1g7SQnNtv-6">
          <mxGeometry relative="1" as="geometry" />
        </mxCell>
        <mxCell id="BiNFgmCxdBk1g7SQnNtv-2" value="1" style="ellipse;whiteSpace=wrap;html=1;aspect=fixed;" vertex="1" parent="1">
          <mxGeometry x="20" y="170" width="50" height="50" as="geometry" />
        </mxCell>
        <mxCell id="BiNFgmCxdBk1g7SQnNtv-3" style="edgeStyle=orthogonalEdgeStyle;rounded=0;orthogonalLoop=1;jettySize=auto;html=1;entryX=0;entryY=0.5;entryDx=0;entryDy=0;" edge="1" parent="1" source="BiNFgmCxdBk1g7SQnNtv-6" target="BiNFgmCxdBk1g7SQnNtv-10">
          <mxGeometry relative="1" as="geometry" />
        </mxCell>
        <mxCell id="BiNFgmCxdBk1g7SQnNtv-4" style="edgeStyle=orthogonalEdgeStyle;rounded=0;orthogonalLoop=1;jettySize=auto;html=1;entryX=0;entryY=0.5;entryDx=0;entryDy=0;" edge="1" parent="1" source="BiNFgmCxdBk1g7SQnNtv-6" target="BiNFgmCxdBk1g7SQnNtv-8">
          <mxGeometry relative="1" as="geometry">
            <Array as="points">
              <mxPoint x="155" y="115" />
            </Array>
          </mxGeometry>
        </mxCell>
        <mxCell id="BiNFgmCxdBk1g7SQnNtv-5" style="edgeStyle=orthogonalEdgeStyle;rounded=0;orthogonalLoop=1;jettySize=auto;html=1;entryX=0;entryY=0.5;entryDx=0;entryDy=0;" edge="1" parent="1" source="BiNFgmCxdBk1g7SQnNtv-6" target="BiNFgmCxdBk1g7SQnNtv-12">
          <mxGeometry relative="1" as="geometry">
            <Array as="points">
              <mxPoint x="155" y="275" />
            </Array>
          </mxGeometry>
        </mxCell>
        <mxCell id="BiNFgmCxdBk1g7SQnNtv-6" value="2" style="ellipse;whiteSpace=wrap;html=1;aspect=fixed;" vertex="1" parent="1">
          <mxGeometry x="130" y="170" width="50" height="50" as="geometry" />
        </mxCell>
        <mxCell id="BiNFgmCxdBk1g7SQnNtv-43" style="edgeStyle=orthogonalEdgeStyle;rounded=0;orthogonalLoop=1;jettySize=auto;html=1;entryX=0;entryY=0.5;entryDx=0;entryDy=0;" edge="1" parent="1" source="BiNFgmCxdBk1g7SQnNtv-8" target="BiNFgmCxdBk1g7SQnNtv-15">
          <mxGeometry relative="1" as="geometry" />
        </mxCell>
        <mxCell id="BiNFgmCxdBk1g7SQnNtv-46" style="edgeStyle=orthogonalEdgeStyle;rounded=0;orthogonalLoop=1;jettySize=auto;html=1;entryX=0.5;entryY=0;entryDx=0;entryDy=0;" edge="1" parent="1" source="BiNFgmCxdBk1g7SQnNtv-8" target="BiNFgmCxdBk1g7SQnNtv-10">
          <mxGeometry relative="1" as="geometry" />
        </mxCell>
        <mxCell id="BiNFgmCxdBk1g7SQnNtv-8" value="3" style="ellipse;whiteSpace=wrap;html=1;aspect=fixed;" vertex="1" parent="1">
          <mxGeometry x="280" y="90" width="50" height="50" as="geometry" />
        </mxCell>
        <mxCell id="BiNFgmCxdBk1g7SQnNtv-44" style="edgeStyle=orthogonalEdgeStyle;rounded=0;orthogonalLoop=1;jettySize=auto;html=1;" edge="1" parent="1" source="BiNFgmCxdBk1g7SQnNtv-10" target="BiNFgmCxdBk1g7SQnNtv-19">
          <mxGeometry relative="1" as="geometry" />
        </mxCell>
        <mxCell id="BiNFgmCxdBk1g7SQnNtv-10" value="4" style="ellipse;whiteSpace=wrap;html=1;aspect=fixed;" vertex="1" parent="1">
          <mxGeometry x="280" y="170" width="50" height="50" as="geometry" />
        </mxCell>
        <mxCell id="BiNFgmCxdBk1g7SQnNtv-45" style="edgeStyle=orthogonalEdgeStyle;rounded=0;orthogonalLoop=1;jettySize=auto;html=1;" edge="1" parent="1" source="BiNFgmCxdBk1g7SQnNtv-12" target="BiNFgmCxdBk1g7SQnNtv-17">
          <mxGeometry relative="1" as="geometry" />
        </mxCell>
        <mxCell id="BiNFgmCxdBk1g7SQnNtv-12" value="5" style="ellipse;whiteSpace=wrap;html=1;aspect=fixed;" vertex="1" parent="1">
          <mxGeometry x="280" y="250" width="50" height="50" as="geometry" />
        </mxCell>
        <mxCell id="BiNFgmCxdBk1g7SQnNtv-59" style="edgeStyle=orthogonalEdgeStyle;rounded=0;orthogonalLoop=1;jettySize=auto;html=1;" edge="1" parent="1" source="BiNFgmCxdBk1g7SQnNtv-15" target="BiNFgmCxdBk1g7SQnNtv-20">
          <mxGeometry relative="1" as="geometry" />
        </mxCell>
        <mxCell id="BiNFgmCxdBk1g7SQnNtv-15" value="6" style="ellipse;whiteSpace=wrap;html=1;aspect=fixed;" vertex="1" parent="1">
          <mxGeometry x="400" y="90" width="50" height="50" as="geometry" />
        </mxCell>
        <mxCell id="BiNFgmCxdBk1g7SQnNtv-62" style="edgeStyle=orthogonalEdgeStyle;rounded=0;orthogonalLoop=1;jettySize=auto;html=1;entryX=0.5;entryY=1;entryDx=0;entryDy=0;" edge="1" parent="1" source="BiNFgmCxdBk1g7SQnNtv-17" target="BiNFgmCxdBk1g7SQnNtv-19">
          <mxGeometry relative="1" as="geometry" />
        </mxCell>
        <mxCell id="BiNFgmCxdBk1g7SQnNtv-17" value="8" style="ellipse;whiteSpace=wrap;html=1;aspect=fixed;" vertex="1" parent="1">
          <mxGeometry x="400" y="250" width="50" height="50" as="geometry" />
        </mxCell>
        <mxCell id="BiNFgmCxdBk1g7SQnNtv-56" style="edgeStyle=orthogonalEdgeStyle;rounded=0;orthogonalLoop=1;jettySize=auto;html=1;entryX=0.5;entryY=1;entryDx=0;entryDy=0;" edge="1" parent="1" source="BiNFgmCxdBk1g7SQnNtv-19" target="BiNFgmCxdBk1g7SQnNtv-15">
          <mxGeometry relative="1" as="geometry" />
        </mxCell>
        <mxCell id="BiNFgmCxdBk1g7SQnNtv-19" value="7" style="ellipse;whiteSpace=wrap;html=1;aspect=fixed;" vertex="1" parent="1">
          <mxGeometry x="400" y="170" width="50" height="50" as="geometry" />
        </mxCell>
        <mxCell id="BiNFgmCxdBk1g7SQnNtv-20" value="9" style="ellipse;whiteSpace=wrap;html=1;aspect=fixed;" vertex="1" parent="1">
          <mxGeometry x="520" y="90" width="50" height="50" as="geometry" />
        </mxCell>
        <mxCell id="BiNFgmCxdBk1g7SQnNtv-21" value="A&lt;span style=&quot;color: rgba(0, 0, 0, 0); font-family: monospace; font-size: 0px; text-align: start;&quot;&gt;%3CmxGraphModel%3E%3Croot%3E%3CmxCell%20id%3D%220%22%2F%3E%3CmxCell%20id%3D%221%22%20parent%3D%220%22%2F%3E%3CmxCell%20id%3D%222%22%20value%3D%228%22%20style%3D%22ellipse%3BwhiteSpace%3Dwrap%3Bhtml%3D1%3Baspect%3Dfixed%3B%22%20vertex%3D%221%22%20parent%3D%221%22%3E%3CmxGeometry%20x%3D%22500%22%20y%3D%22170%22%20width%3D%2250%22%20height%3D%2250%22%20as%3D%22geometry%22%2F%3E%3C%2FmxCell%3E%3C%2Froot%3E%3C%2FmxGraphModel%3E&lt;/span&gt;" style="text;html=1;strokeColor=none;fillColor=none;align=center;verticalAlign=middle;whiteSpace=wrap;rounded=0;" vertex="1" parent="1">
          <mxGeometry x="70" y="200" width="60" height="30" as="geometry" />
        </mxCell>
        <mxCell id="BiNFgmCxdBk1g7SQnNtv-22" value="9 ngày" style="text;html=1;strokeColor=none;fillColor=none;align=center;verticalAlign=middle;whiteSpace=wrap;rounded=0;" vertex="1" parent="1">
          <mxGeometry x="70" y="160" width="60" height="30" as="geometry" />
        </mxCell>
        <mxCell id="BiNFgmCxdBk1g7SQnNtv-23" value="2 ngày" style="text;html=1;strokeColor=none;fillColor=none;align=center;verticalAlign=middle;whiteSpace=wrap;rounded=0;" vertex="1" parent="1">
          <mxGeometry x="190" y="60" width="60" height="30" as="geometry" />
        </mxCell>
        <mxCell id="BiNFgmCxdBk1g7SQnNtv-31" value="5 ngày" style="text;html=1;strokeColor=none;fillColor=none;align=center;verticalAlign=middle;whiteSpace=wrap;rounded=0;" vertex="1" parent="1">
          <mxGeometry x="190" y="300" width="60" height="30" as="geometry" />
        </mxCell>
        <mxCell id="BiNFgmCxdBk1g7SQnNtv-32" value="12 ngày" style="text;html=1;strokeColor=none;fillColor=none;align=center;verticalAlign=middle;whiteSpace=wrap;rounded=0;" vertex="1" parent="1">
          <mxGeometry x="190" y="200" width="60" height="30" as="geometry" />
        </mxCell>
        <mxCell id="BiNFgmCxdBk1g7SQnNtv-33" value="B" style="text;html=1;strokeColor=none;fillColor=none;align=center;verticalAlign=middle;whiteSpace=wrap;rounded=0;" vertex="1" parent="1">
          <mxGeometry x="190" y="90" width="60" height="30" as="geometry" />
        </mxCell>
        <mxCell id="BiNFgmCxdBk1g7SQnNtv-34" value="C" style="text;html=1;strokeColor=none;fillColor=none;align=center;verticalAlign=middle;whiteSpace=wrap;rounded=0;" vertex="1" parent="1">
          <mxGeometry x="190" y="160" width="60" height="30" as="geometry" />
        </mxCell>
        <mxCell id="BiNFgmCxdBk1g7SQnNtv-35" value="D" style="text;html=1;strokeColor=none;fillColor=none;align=center;verticalAlign=middle;whiteSpace=wrap;rounded=0;" vertex="1" parent="1">
          <mxGeometry x="190" y="280" width="60" height="30" as="geometry" />
        </mxCell>
        <mxCell id="BiNFgmCxdBk1g7SQnNtv-47" value="6 ngày" style="text;html=1;strokeColor=none;fillColor=none;align=center;verticalAlign=middle;whiteSpace=wrap;rounded=0;" vertex="1" parent="1">
          <mxGeometry x="330" y="60" width="60" height="30" as="geometry" />
        </mxCell>
        <mxCell id="BiNFgmCxdBk1g7SQnNtv-49" value="E" style="text;html=1;strokeColor=none;fillColor=none;align=center;verticalAlign=middle;whiteSpace=wrap;rounded=0;" vertex="1" parent="1">
          <mxGeometry x="330" y="90" width="60" height="30" as="geometry" />
        </mxCell>
        <mxCell id="BiNFgmCxdBk1g7SQnNtv-50" value="F" style="text;html=1;strokeColor=none;fillColor=none;align=center;verticalAlign=middle;whiteSpace=wrap;rounded=0;" vertex="1" parent="1">
          <mxGeometry x="260" y="140" width="60" height="20" as="geometry" />
        </mxCell>
        <mxCell id="BiNFgmCxdBk1g7SQnNtv-51" value="8 ngày" style="text;html=1;strokeColor=none;fillColor=none;align=center;verticalAlign=middle;whiteSpace=wrap;rounded=0;" vertex="1" parent="1">
          <mxGeometry x="300" y="135" width="60" height="30" as="geometry" />
        </mxCell>
        <mxCell id="BiNFgmCxdBk1g7SQnNtv-52" value="G" style="text;html=1;strokeColor=none;fillColor=none;align=center;verticalAlign=middle;whiteSpace=wrap;rounded=0;" vertex="1" parent="1">
          <mxGeometry x="330" y="170" width="60" height="30" as="geometry" />
        </mxCell>
        <mxCell id="BiNFgmCxdBk1g7SQnNtv-53" value="3 ngày" style="text;html=1;strokeColor=none;fillColor=none;align=center;verticalAlign=middle;whiteSpace=wrap;rounded=0;" vertex="1" parent="1">
          <mxGeometry x="330" y="200" width="60" height="30" as="geometry" />
        </mxCell>
        <mxCell id="BiNFgmCxdBk1g7SQnNtv-54" value="H" style="text;html=1;strokeColor=none;fillColor=none;align=center;verticalAlign=middle;whiteSpace=wrap;rounded=0;" vertex="1" parent="1">
          <mxGeometry x="330" y="280" width="60" height="30" as="geometry" />
        </mxCell>
        <mxCell id="BiNFgmCxdBk1g7SQnNtv-55" value="2 ngày" style="text;html=1;strokeColor=none;fillColor=none;align=center;verticalAlign=middle;whiteSpace=wrap;rounded=0;" vertex="1" parent="1">
          <mxGeometry x="330" y="300" width="60" height="30" as="geometry" />
        </mxCell>
        <mxCell id="BiNFgmCxdBk1g7SQnNtv-57" value="J" style="text;html=1;strokeColor=none;fillColor=none;align=center;verticalAlign=middle;whiteSpace=wrap;rounded=0;" vertex="1" parent="1">
          <mxGeometry x="380" y="150" width="60" height="20" as="geometry" />
        </mxCell>
        <mxCell id="BiNFgmCxdBk1g7SQnNtv-58" value="6 ngày" style="text;html=1;strokeColor=none;fillColor=none;align=center;verticalAlign=middle;whiteSpace=wrap;rounded=0;" vertex="1" parent="1">
          <mxGeometry x="425" y="145" width="60" height="30" as="geometry" />
        </mxCell>
        <mxCell id="BiNFgmCxdBk1g7SQnNtv-60" value="K" style="text;html=1;strokeColor=none;fillColor=none;align=center;verticalAlign=middle;whiteSpace=wrap;rounded=0;" vertex="1" parent="1">
          <mxGeometry x="450" y="90" width="60" height="30" as="geometry" />
        </mxCell>
        <mxCell id="BiNFgmCxdBk1g7SQnNtv-61" value="2 ngày" style="text;html=1;strokeColor=none;fillColor=none;align=center;verticalAlign=middle;whiteSpace=wrap;rounded=0;" vertex="1" parent="1">
          <mxGeometry x="450" y="60" width="60" height="30" as="geometry" />
        </mxCell>
        <mxCell id="BiNFgmCxdBk1g7SQnNtv-63" value="8 ngày" style="text;html=1;strokeColor=none;fillColor=none;align=center;verticalAlign=middle;whiteSpace=wrap;rounded=0;" vertex="1" parent="1">
          <mxGeometry x="425" y="225" width="60" height="30" as="geometry" />
        </mxCell>
        <mxCell id="BiNFgmCxdBk1g7SQnNtv-64" value="I" style="text;html=1;strokeColor=none;fillColor=none;align=center;verticalAlign=middle;whiteSpace=wrap;rounded=0;" vertex="1" parent="1">
          <mxGeometry x="380" y="230" width="60" height="20" as="geometry" />
        </mxCell>
      </root>
    </mxGraphModel>
  </diagram>
</mxfile>
